<svg version="1.1" id="Layer_1" xmlns="http://www.w3.org/2000/svg" xmlns:xlink="http://www.w3.org/1999/xlink" x="0px" y="0px"
	 width="100%" viewBox="0 0 2000 725" enable-background="new 0 0 2000 725" xml:space="preserve">
<path fill="black" opacity="1.000000" stroke="none" 
	d="
M1339.955566,262.420105 
	C1339.755005,251.265686 1342.354614,247.446777 1351.670898,244.871887 
	C1360.789795,242.351517 1371.406250,245.834167 1374.644653,254.142197 
	C1378.626709,264.357788 1385.625488,266.365662 1395.433838,266.142212 
	C1416.580566,265.660522 1437.745850,265.895691 1458.902832,266.000916 
	C1470.187622,266.057007 1475.654785,272.607605 1474.083008,283.727509 
	C1473.206421,289.929626 1469.614014,293.939606 1462.860962,294.402039 
	C1453.736328,295.026886 1444.550049,294.902771 1435.391724,294.846069 
	C1421.597168,294.760712 1421.592529,294.665558 1417.398315,307.716278 
	C1417.005737,308.937683 1416.736938,310.198822 1416.016602,312.943848 
	C1425.447144,312.943848 1434.231445,312.522980 1442.959351,313.045258 
	C1455.176392,313.776367 1462.775024,321.500488 1462.837158,333.684082 
	C1463.047974,375.006897 1463.100342,416.333160 1462.772339,457.654602 
	C1462.655396,472.385345 1455.150635,479.623260 1440.301147,479.877167 
	C1428.354248,480.081421 1416.371826,479.499817 1404.437744,478.749481 
	C1395.221802,478.170044 1391.217896,473.387512 1391.057129,464.136139 
	C1390.958862,458.480438 1389.421631,456.945435 1383.447876,456.930389 
	C1366.618530,456.887939 1349.788940,456.944092 1332.959717,456.882141 
	C1330.311646,456.872375 1327.639038,456.612274 1325.022583,456.190186 
	C1313.107544,454.268066 1308.353760,448.962250 1308.039795,436.758759 
	C1307.761230,425.934784 1307.681885,415.097900 1307.884399,404.273682 
	C1307.950928,400.720184 1306.843872,399.326508 1303.440063,398.600403 
	C1298.767578,397.603607 1294.231812,395.965576 1288.901978,394.384094 
	C1288.629028,399.587708 1288.175171,404.325195 1288.168091,409.063354 
	C1288.140137,427.722534 1288.260864,446.381958 1288.310425,465.041321 
	C1288.349609,479.802826 1277.776489,486.738617 1264.117798,480.856720 
	C1259.612427,478.916473 1257.004517,475.505280 1257.006592,470.428711 
	C1257.025146,424.605438 1256.981323,378.781952 1257.127441,332.959045 
	C1257.164062,321.496826 1264.463745,313.729370 1275.890869,313.088104 
	C1284.661377,312.595917 1293.481567,312.990112 1303.191772,312.990112 
	C1301.655151,307.391998 1300.778931,302.533234 1298.870239,298.121033 
	C1298.171875,296.506317 1295.049927,295.116455 1292.989258,295.052643 
	C1282.334595,294.722687 1271.662964,294.987061 1261.001953,294.792267 
	C1248.911255,294.571381 1242.793579,286.505157 1245.945557,275.267639 
	C1247.681519,269.078674 1252.052002,266.028564 1259.543701,266.011200 
	C1283.369141,265.955902 1307.195923,266.065155 1331.018677,265.802216 
	C1333.986328,265.769470 1336.933594,263.882385 1339.955566,262.420105 
M1342.624146,377.024628 
	C1358.133423,377.024628 1373.642822,377.024628 1390.599854,377.024628 
	C1385.146240,372.347839 1380.726562,368.862152 1376.663452,365.001190 
	C1370.701782,359.336121 1370.323853,354.149689 1374.928711,347.266113 
	C1375.857666,345.877472 1376.808350,344.503326 1377.828613,343.005768 
	C1365.953369,343.005768 1354.591064,343.005768 1343.052246,343.005768 
	C1350.014038,354.795532 1349.706299,357.672882 1340.700562,368.283936 
	C1338.430054,370.959015 1336.272583,373.729828 1333.602905,377.024597 
	C1337.018677,377.024597 1339.346436,377.024597 1342.624146,377.024628 
M1383.168579,417.535736 
	C1383.114990,415.706390 1383.170166,413.865997 1382.986206,412.049866 
	C1382.539185,407.634857 1380.229736,404.992310 1375.597656,404.974518 
	C1365.947998,404.937500 1356.296997,404.898468 1346.648926,405.032532 
	C1342.456787,405.090820 1339.512085,407.185913 1338.000854,411.267609 
	C1334.216431,421.489349 1339.702271,429.716766 1350.742676,430.001465 
	C1357.725830,430.181519 1364.717773,430.067261 1371.705322,430.024811 
	C1381.743164,429.963806 1383.185303,428.492065 1383.168579,417.535736 
M1431.169922,409.506714 
	C1431.169922,405.057434 1431.169922,400.608154 1431.169922,395.708710 
	C1424.642456,396.255463 1418.787476,396.745880 1413.070679,397.224701 
	C1413.070679,414.577423 1413.070679,431.493164 1413.070679,448.323242 
	C1426.817261,453.050812 1430.944824,450.202332 1431.129761,435.942932 
	C1431.239868,427.464478 1431.164429,418.983643 1431.169922,409.506714 
M1359.500122,295.293304 
	C1350.447876,295.293304 1341.395508,295.293304 1331.668213,295.293304 
	C1333.598022,299.948547 1334.795654,304.163574 1337.034302,307.724060 
	C1338.312256,309.756714 1341.240479,311.881744 1343.505249,311.972046 
	C1354.468628,312.409241 1365.463257,312.326324 1376.435669,312.024750 
	C1378.351074,311.972076 1381.078979,310.442749 1381.930542,308.811707 
	C1384.099731,304.657074 1385.419434,300.059021 1387.208862,295.293304 
	C1377.803955,295.293304 1369.152100,295.293304 1359.500122,295.293304 
M1297.062012,369.617096 
	C1305.782593,361.906586 1314.526123,354.221619 1323.187988,346.445740 
	C1324.045410,345.675995 1324.404053,344.350464 1324.994141,343.282867 
	C1324.157349,342.919830 1323.320312,342.241608 1322.483643,342.242096 
	C1313.169922,342.247253 1303.854980,342.299194 1294.542969,342.469727 
	C1291.135132,342.532166 1289.481689,344.507812 1289.453979,347.937286 
	C1289.403076,354.257263 1289.190430,360.577362 1289.237671,366.895966 
	C1289.255371,369.270599 1289.808228,371.641174 1290.117065,374.013641 
	C1292.246338,372.705322 1294.375610,371.397034 1297.062012,369.617096 
M1424.883667,342.129761 
	C1415.083984,342.129761 1405.284302,342.129761 1395.484619,342.129761 
	C1395.402100,342.570831 1395.319702,343.011871 1395.237183,343.452942 
	C1406.707520,352.347168 1418.177979,361.241394 1430.242676,370.596497 
	C1430.242676,362.627014 1430.164307,355.520660 1430.277222,348.417358 
	C1430.330200,345.075836 1428.887939,343.081451 1424.883667,342.129761 
z"/>
<path fill="black" opacity="1.000000" stroke="none" 
	d="
M1580.745117,329.023590 
	C1590.884521,334.952911 1592.703125,345.048706 1592.796753,354.700439 
	C1593.030884,378.842072 1592.101807,402.997711 1591.470215,427.143280 
	C1591.283325,434.290344 1590.732178,441.443176 1589.999878,448.557587 
	C1588.119995,466.821136 1575.980713,477.169189 1557.630371,476.370941 
	C1556.133545,476.305817 1554.642212,476.122192 1553.146729,476.015778 
	C1540.543457,475.118652 1534.650024,467.420593 1537.067139,455.005798 
	C1538.201416,449.179810 1541.624634,445.876617 1547.670288,444.766968 
	C1548.161621,444.676819 1548.642334,444.525696 1549.135010,444.446503 
	C1562.751099,442.258148 1562.864136,442.220001 1563.145752,428.579407 
	C1563.568726,408.093658 1563.931641,387.606171 1564.188232,367.117767 
	C1564.264526,361.028503 1561.006958,357.220428 1555.420044,356.147217 
	C1550.274658,355.158783 1546.665039,357.752258 1545.983398,362.937347 
	C1543.319214,383.202454 1540.581665,403.458313 1538.019775,423.736359 
	C1535.978516,439.892914 1530.277954,454.907074 1523.629272,469.557922 
	C1519.196289,479.326660 1507.887329,482.260468 1498.618042,476.740479 
	C1492.321167,472.990570 1490.429810,466.239502 1493.598511,458.447235 
	C1496.841431,450.471741 1500.261353,442.567505 1503.446899,434.569550 
	C1509.166016,420.209900 1511.388672,405.178986 1512.106201,389.813812 
	C1513.209351,366.192535 1514.552124,342.582245 1515.837769,318.969757 
	C1516.283203,310.788055 1516.343628,310.791351 1508.446533,309.776154 
	C1496.215698,308.203918 1490.732666,299.298370 1495.012939,287.957428 
	C1497.279907,281.950867 1500.952881,279.250977 1507.465698,279.122467 
	C1513.628662,279.000916 1519.796753,279.153229 1525.960571,279.055664 
	C1530.641724,278.981567 1531.842285,277.209991 1530.532959,272.730255 
	C1529.605347,269.556976 1528.751343,266.361755 1527.793091,263.197968 
	C1524.000244,250.675125 1533.553101,246.149429 1542.805786,246.521896 
	C1550.977783,246.850876 1557.010742,250.840012 1560.087036,258.616394 
	C1561.911743,263.229187 1563.524536,267.930756 1565.088257,272.640320 
	C1566.577515,277.125641 1569.180664,279.743317 1574.273926,279.092285 
	C1576.079468,278.861481 1577.935181,279.016357 1579.768066,279.006348 
	C1590.960449,278.945160 1594.163940,280.801392 1600.023682,291.162109 
	C1601.147339,289.464355 1602.260132,288.129456 1602.997681,286.612122 
	C1607.708374,276.922028 1612.287354,267.167938 1617.009277,257.483398 
	C1619.941162,251.469833 1624.216309,247.090439 1631.436157,246.896545 
	C1640.232544,246.660294 1646.912109,253.153320 1647.072266,261.998230 
	C1647.271973,273.036804 1647.271851,273.036774 1658.339355,273.037720 
	C1677.002197,273.039307 1695.665527,272.950562 1714.327515,273.076904 
	C1725.364258,273.151611 1730.877930,279.098083 1730.064453,289.575043 
	C1729.444824,297.556061 1722.984619,302.955719 1713.753296,302.985931 
	C1692.091553,303.056824 1670.429688,303.041870 1648.767822,303.061646 
	C1646.768188,303.063477 1644.768066,303.032532 1642.769165,303.072021 
	C1630.199829,303.320282 1625.926025,306.933105 1623.000854,320.351532 
	C1633.407837,319.388977 1643.672485,318.916870 1653.778809,317.394165 
	C1669.354736,315.047394 1684.820312,311.969635 1700.336304,309.222473 
	C1713.367310,306.915283 1720.050049,312.802887 1718.996094,325.675598 
	C1718.518311,331.511444 1714.923096,335.189972 1709.815430,337.004272 
	C1704.069458,339.045288 1698.122925,340.758514 1692.121704,341.787170 
	C1683.357300,343.289459 1682.179688,344.508270 1683.741943,353.064667 
	C1684.717041,358.405487 1685.577759,363.767151 1686.644043,370.024445 
	C1690.397339,367.748810 1693.634644,365.893005 1696.755859,363.858978 
	C1699.120850,362.317719 1701.290771,360.480011 1703.629028,358.894348 
	C1712.162598,353.107086 1717.143433,353.501587 1722.692749,360.323761 
	C1728.728271,367.743774 1728.758789,375.458893 1721.851196,381.550476 
	C1715.772095,386.911102 1709.088257,391.631592 1702.403076,396.245728 
	C1696.202515,400.525452 1694.953979,403.695709 1699.006958,409.802643 
	C1708.458862,424.044739 1717.998657,438.236969 1727.875977,452.185181 
	C1733.426147,460.022797 1733.533325,465.594238 1727.028809,472.022766 
	C1719.858643,479.109253 1711.207642,480.326202 1704.864380,473.906586 
	C1696.471558,465.412842 1688.939209,456.069000 1680.988037,447.034882 
	C1678.011108,456.572205 1669.523438,460.957520 1660.571777,464.658020 
	C1649.403931,469.274719 1638.152222,473.689362 1626.913330,478.132263 
	C1621.817749,480.146606 1616.488403,481.695862 1612.022095,477.146667 
	C1607.083130,472.116241 1603.073730,465.863251 1605.537842,458.782745 
	C1609.441772,447.564331 1608.925537,436.167450 1608.966919,424.732025 
	C1609.065796,397.404572 1609.024658,370.076630 1608.994019,342.748901 
	C1608.991699,340.624756 1608.631104,338.500977 1608.446045,336.475708 
	C1586.623169,333.560974 1581.899780,328.298615 1584.976196,310.297699 
	C1573.542969,310.297699 1562.134155,309.780182 1550.810425,310.536682 
	C1545.851440,310.867920 1547.069458,316.513977 1546.797852,320.011597 
	C1546.506226,323.768463 1549.277588,325.722046 1552.783447,325.972595 
	C1559.424683,326.447296 1566.098999,326.473419 1572.735229,326.996521 
	C1575.318604,327.200165 1577.835938,328.243561 1580.745117,329.023590 
M1641.010254,352.217560 
	C1640.869751,353.707825 1640.608398,355.197968 1640.606812,356.688385 
	C1640.581787,381.167938 1640.572510,405.647583 1640.614258,430.127106 
	C1640.618652,432.718750 1640.963867,435.309814 1641.196289,438.528748 
	C1651.670044,434.735352 1661.547974,431.157745 1671.477051,427.561646 
	C1669.244995,421.171631 1666.436401,415.241638 1665.133057,408.997406 
	C1661.441895,391.312836 1658.485474,373.475739 1654.918091,355.763489 
	C1654.399048,353.186127 1652.420166,349.291962 1650.585205,348.961914 
	C1647.715820,348.445801 1644.392456,350.452698 1641.010254,352.217560 
z"/>
<path fill="black" opacity="1.000000" stroke="none" 
	d="
M1780.124023,440.004028 
	C1780.831665,427.401642 1781.539429,415.295593 1782.279785,402.632599 
	C1777.265015,403.152130 1772.070679,403.764374 1766.862183,404.213348 
	C1757.843872,404.990814 1753.328857,401.181274 1751.282837,391.219727 
	C1749.869263,384.337585 1753.281738,378.013092 1760.885864,375.988770 
	C1770.474731,373.436157 1780.343262,371.923737 1790.104248,370.030792 
	C1801.991211,367.725616 1813.897705,365.519592 1825.777954,363.180908 
	C1826.914307,362.957184 1827.925659,362.097565 1828.994995,361.533142 
	C1828.234985,360.574524 1827.649658,359.362274 1826.686157,358.699310 
	C1821.348755,355.026733 1815.840210,351.599609 1810.556274,347.854248 
	C1808.065308,346.088470 1806.165283,346.174805 1803.396240,347.545959 
	C1796.435425,350.992767 1789.325439,354.233917 1782.031250,356.886505 
	C1773.445923,360.008759 1767.114624,356.980957 1763.826538,349.000854 
	C1760.465698,340.844604 1762.597168,335.637695 1771.426514,331.448334 
	C1789.412476,322.914185 1806.219116,312.679443 1820.231201,298.320312 
	C1821.692261,296.823059 1822.923828,295.102020 1825.225952,292.319702 
	C1817.164307,292.319702 1810.445312,292.308533 1803.726440,292.327606 
	C1802.061768,292.332336 1800.395996,292.407318 1798.733154,292.497528 
	C1788.003418,293.079468 1786.750854,294.212280 1787.005737,304.920380 
	C1787.392822,321.176849 1774.155762,323.229858 1764.155640,320.139709 
	C1759.341553,318.652130 1756.567627,314.754852 1756.321655,310.116119 
	C1755.873535,301.661316 1755.466187,293.037567 1756.619507,284.702637 
	C1758.473389,271.304565 1766.182617,265.236938 1779.921753,265.088257 
	C1797.912964,264.893524 1815.907227,264.977020 1833.900146,264.936127 
	C1835.732422,264.931976 1837.575928,264.756226 1839.394897,264.901367 
	C1844.146729,265.280548 1846.180054,263.593994 1846.105713,258.430542 
	C1845.986572,250.141571 1848.088989,248.052750 1856.210449,246.327408 
	C1869.941772,243.410309 1876.175903,246.405869 1882.159546,258.995605 
	C1884.300049,263.499176 1887.822388,265.058014 1892.609497,265.038544 
	C1912.433838,264.957947 1932.262329,264.812897 1952.081177,265.154297 
	C1957.460205,265.246979 1962.961304,266.470612 1968.137939,268.053162 
	C1974.831665,270.099426 1977.698242,274.410797 1977.011475,281.232208 
	C1975.982422,291.454895 1974.793457,301.699158 1972.879517,311.783722 
	C1971.209473,320.582794 1964.649414,324.367340 1955.798828,322.704926 
	C1952.727295,322.127960 1949.688599,321.375732 1946.335571,320.637634 
	C1943.506958,342.132446 1925.241455,350.261139 1911.148315,361.950226 
	C1911.146973,362.481262 1911.145630,363.012299 1911.144287,363.543365 
	C1919.903931,365.372833 1928.646973,367.286804 1937.427490,369.009979 
	C1948.006470,371.086090 1958.655151,372.820312 1969.202637,375.039856 
	C1978.010132,376.893311 1981.234131,382.048401 1979.897217,391.125702 
	C1978.751221,398.907074 1973.501709,402.924774 1964.951904,402.367218 
	C1958.701050,401.959534 1952.463379,401.351776 1945.517456,400.774872 
	C1953.224365,416.335266 1950.978516,432.231262 1950.608521,447.945435 
	C1950.561523,449.941101 1950.046021,451.970276 1950.278442,453.920715 
	C1951.830078,466.943542 1941.188232,473.828369 1930.145508,473.922180 
	C1917.317871,474.031128 1904.488770,473.979797 1891.660278,473.974304 
	C1862.171387,473.961700 1832.682617,473.954132 1803.193726,473.905701 
	C1787.881836,473.880554 1781.390991,467.814270 1780.341675,452.491150 
	C1780.068970,448.507935 1780.186035,444.498016 1780.124023,440.004028 
M1815.385132,424.808197 
	C1814.606323,428.253143 1813.228271,431.685669 1813.156494,435.145294 
	C1812.897217,447.622711 1813.827148,448.510681 1826.244995,448.547180 
	C1851.704102,448.621979 1877.163574,448.574249 1902.622925,448.568481 
	C1917.989624,448.565002 1918.078125,448.468506 1918.045654,432.977142 
	C1918.029175,425.040161 1915.959961,422.887421 1908.087646,422.880585 
	C1879.799927,422.856018 1851.511963,422.837128 1823.224609,422.929688 
	C1820.816040,422.937561 1818.410034,423.786591 1815.385132,424.808197 
M1910.500000,291.991577 
	C1890.422119,291.991577 1870.344238,291.991577 1850.297974,291.991577 
	C1850.105713,301.508667 1854.179199,306.774384 1862.383911,307.605835 
	C1866.625000,308.035614 1870.987305,307.071259 1875.290283,307.123413 
	C1895.934570,307.373627 1916.577026,307.769928 1937.220947,308.060883 
	C1938.659302,308.081146 1941.186157,308.000153 1941.369995,307.401825 
	C1942.565308,303.512146 1944.022217,299.400665 1943.690796,295.506714 
	C1943.573608,294.128967 1938.734741,292.311798 1935.970703,292.159180 
	C1927.835571,291.709930 1919.659790,291.994354 1910.500000,291.991577 
M1878.500000,396.091705 
	C1890.974976,396.091705 1903.449951,396.091705 1915.924927,396.091705 
	C1915.980225,395.627838 1916.035400,395.163940 1916.090698,394.700073 
	C1914.993774,394.219971 1913.934448,393.609314 1912.793945,393.280090 
	C1902.299072,390.250702 1891.831665,387.113129 1881.272461,384.324738 
	C1872.790894,382.084991 1864.276978,381.664124 1855.823608,384.964478 
	C1850.612305,386.999084 1845.247803,388.650787 1839.919067,390.372559 
	C1835.269165,391.875031 1830.573120,393.234894 1824.905518,394.959656 
	C1826.499634,395.777405 1826.768188,396.035614 1827.037354,396.036102 
	C1843.858276,396.068024 1860.679077,396.078888 1878.500000,396.091705 
M1844.962158,331.049377 
	C1843.536987,331.049377 1842.111694,331.049377 1840.324463,331.049377 
	C1855.915527,349.520355 1873.977905,350.124420 1901.232788,332.732025 
	C1898.478882,332.012573 1896.638672,331.125610 1894.792847,331.113220 
	C1878.482422,331.003754 1862.171021,331.049530 1844.962158,331.049377 
z"/>
<path fill="black" opacity="1.000000" stroke="none" 
	d="
M1109.823242,374.794037 
	C1108.376465,386.788361 1106.951050,398.306793 1105.471436,410.262848 
	C1108.408203,411.063202 1111.749023,411.825287 1114.992310,412.885956 
	C1124.148804,415.880402 1127.300537,420.581635 1126.036377,430.091736 
	C1124.944580,438.304901 1123.728149,446.536285 1121.900757,454.608826 
	C1119.131714,466.841156 1111.748779,472.838470 1099.373413,473.067688 
	C1078.221558,473.459595 1057.060059,473.360321 1035.910645,473.831390 
	C1018.379211,474.221924 1010.432800,463.752686 1010.180298,448.283630 
	C1009.707214,419.302032 1009.569275,390.314911 1009.303833,361.330017 
	C1009.267456,357.360291 1009.298889,353.389984 1009.298889,349.119507 
	C1008.238342,349.071503 1007.456299,348.968140 1006.682373,349.011383 
	C997.149475,349.544189 992.709412,346.824219 988.812012,338.032501 
	C985.432068,330.408020 986.058289,324.602142 993.145691,318.875977 
	C1015.196472,301.060425 1029.751587,277.280121 1045.566528,254.487823 
	C1052.739136,244.150757 1060.294067,242.029526 1069.950562,248.174210 
	C1074.395142,251.002319 1076.088501,255.253448 1077.047729,260.195190 
	C1077.560181,262.835083 1078.381348,266.040405 1080.224976,267.699158 
	C1097.395630,283.148102 1114.818726,298.316376 1133.022339,314.316162 
	C1133.022339,303.882751 1132.823853,294.013153 1133.083374,284.155640 
	C1133.302246,275.837189 1137.395020,269.851349 1143.380371,268.064240 
	C1153.735840,264.972290 1162.995361,270.504974 1163.837769,281.481384 
	C1164.829712,294.404724 1164.691772,307.427490 1164.736450,320.408203 
	C1164.830566,347.734039 1164.848145,375.061768 1164.581177,402.385620 
	C1164.535156,407.081512 1163.629517,412.045593 1161.878174,416.384064 
	C1159.180054,423.067291 1152.581909,425.773743 1145.395508,424.282776 
	C1137.132935,422.568604 1133.133423,418.509521 1133.036743,410.504822 
	C1132.758667,387.515289 1132.775391,364.522217 1132.683350,341.530518 
	C1132.666138,337.240997 1132.680908,332.951355 1132.680908,327.685272 
	C1129.095947,329.846039 1126.611450,331.408112 1124.066895,332.865601 
	C1115.501099,337.771912 1111.678833,337.493256 1104.410400,330.909973 
	C1095.273315,322.634399 1086.319458,314.156982 1077.260376,305.795044 
	C1073.957031,302.745941 1070.655029,299.687408 1067.213989,296.797974 
	C1063.433838,293.623596 1060.897705,293.884216 1058.025269,297.679169 
	C1050.905396,307.085388 1043.857910,316.546356 1036.156372,326.819000 
	C1040.193237,327.143219 1043.524658,327.598602 1046.861938,327.645874 
	C1060.355225,327.836884 1073.853149,327.761993 1087.343628,328.053558 
	C1100.687378,328.341949 1107.719727,334.607117 1108.972290,347.892670 
	C1109.797974,356.650726 1109.589844,365.506226 1109.823242,374.794037 
M1084.088257,444.051605 
	C1086.778442,442.421967 1091.175781,441.294830 1091.831543,439.066345 
	C1093.637573,432.931213 1093.876099,426.334717 1094.820801,419.278198 
	C1082.484619,419.278198 1071.646851,419.867981 1060.912720,419.067474 
	C1053.948120,418.548065 1048.075562,409.474945 1049.422974,402.726898 
	C1051.678467,391.429932 1055.826538,389.061218 1064.281494,390.024353 
	C1066.099609,390.231476 1067.923828,390.488007 1069.748291,390.513824 
	C1074.508057,390.581177 1077.963379,388.660431 1078.437500,383.570160 
	C1078.945679,378.113708 1079.203613,372.618835 1079.246094,367.138245 
	C1079.291016,361.352905 1076.909058,359.024261 1071.051147,358.939575 
	C1063.226074,358.826416 1055.397949,358.876160 1047.571655,358.928192 
	C1041.485107,358.968628 1039.924805,360.528748 1039.921143,366.584534 
	C1039.907471,389.233276 1039.916504,411.882019 1039.948120,434.530731 
	C1039.957520,441.226807 1042.098267,443.739380 1048.763062,443.893616 
	C1060.240601,444.159210 1071.726929,444.051544 1084.088257,444.051605 
z"/>
<path fill="black" opacity="1.000000" stroke="none" 
	d="
M412.003296,543.621826 
	C405.210114,543.804199 398.417206,544.130493 391.623657,544.143250 
	C366.725006,544.190186 341.826202,544.132812 316.517944,543.697144 
	C319.096130,539.995911 321.959351,536.588074 325.091095,533.447998 
	C351.239288,507.230804 377.463989,481.089752 403.563232,454.823975 
	C405.451050,452.924164 406.534149,450.224731 408.365417,447.741394 
	C417.102905,446.255707 425.603516,445.490051 433.805908,443.497070 
	C467.550446,435.297913 495.610840,417.683289 517.368774,390.647614 
	C524.806030,381.406403 531.186707,371.208862 537.146973,360.924896 
	C540.690430,354.810944 542.474426,347.677277 545.411011,340.994598 
	C549.893188,337.113281 554.115356,333.341370 558.117676,329.349030 
	C584.108643,303.422546 610.020142,277.416199 636.066284,251.545410 
	C638.334595,249.292374 641.386169,247.827972 644.073914,245.997253 
	C645.069641,253.856125 646.429565,261.689972 646.972534,269.580017 
	C647.716614,280.392609 647.956970,291.245636 648.166504,302.086121 
	C648.238281,305.797760 647.567200,309.523804 646.656433,313.623169 
	C644.410767,315.075989 642.570740,315.959381 641.128906,317.278107 
	C639.831543,318.464691 639.145569,320.303314 637.892578,321.557251 
	C567.391479,392.114502 496.889709,462.671234 426.228088,533.067383 
	C423.122223,536.161621 418.451843,537.646851 414.666443,540.120605 
	C413.509949,540.876343 412.876373,542.432312 412.003296,543.621826 
z"/>
<path fill="black" opacity="1.000000" stroke="none" 
	d="
M407.991394,447.897064 
	C406.534149,450.224731 405.451050,452.924164 403.563232,454.823975 
	C377.463989,481.089752 351.239288,507.230804 325.091095,533.447998 
	C321.959351,536.588074 319.096130,539.995911 316.056030,543.612549 
	C293.513367,544.015381 271.023163,544.085754 248.532928,544.154297 
	C246.564941,544.160339 244.596939,544.155151 241.997284,544.155151 
	C241.997284,546.293030 241.997040,548.060730 241.997314,549.828430 
	C242.001175,575.658142 242.125519,601.488586 241.974030,627.317383 
	C241.831665,651.591919 224.005997,671.434143 199.684982,674.772644 
	C176.595795,677.941956 153.549057,662.825134 147.724350,639.699768 
	C145.810974,632.103210 146.428650,623.869263 146.314835,615.426086 
	C149.139709,612.471191 151.514771,609.993103 153.941147,607.566284 
	C204.774643,556.723450 255.626877,505.899292 306.402008,454.998260 
	C308.313385,453.082123 309.488495,450.431488 311.469910,448.049561 
	C343.952545,447.949646 375.971985,447.923370 407.991394,447.897064 
z"/>
<path fill="black" opacity="1.000000" stroke="none" 
	d="
M126.004303,543.943848 
	C105.054283,543.962280 84.098244,544.258728 63.158424,543.805725 
	C57.857937,543.691040 52.609146,541.186401 47.144157,539.098938 
	C44.421635,532.337585 45.291054,530.100586 51.379646,526.239929 
	C52.566635,525.487244 53.422634,524.206360 54.414631,523.153442 
	C58.178436,519.158386 61.802269,515.020020 65.733078,511.197052 
	C69.539238,507.495422 73.888069,504.339172 77.584709,500.540649 
	C82.700348,495.284027 87.199669,489.422333 92.373154,484.228363 
	C101.626877,474.937958 111.275055,466.041077 120.560860,456.781616 
	C123.074486,454.275085 124.879173,451.057617 127.009262,448.166443 
	C133.090469,448.166443 139.171677,448.166443 145.903275,448.166443 
	C145.903275,441.716339 145.903275,435.822479 146.321594,429.428406 
	C151.770065,424.396332 156.961517,420.029022 161.791840,415.293427 
	C168.724167,408.497131 175.372223,401.411652 182.182541,394.489838 
	C186.205841,390.400665 190.289963,386.370758 194.379730,382.347778 
	C198.607498,378.189056 202.893936,374.089996 207.119659,369.929230 
	C210.750107,366.354675 214.361755,362.759918 217.927353,359.120789 
	C224.377502,352.537750 230.716446,345.843048 237.288910,339.385376 
	C238.289032,338.402740 240.293167,338.441986 241.897339,338.472809 
	C241.918655,367.961212 241.875565,396.985352 241.498901,426.049255 
	C238.590958,428.411957 235.909012,430.627136 233.458496,433.074097 
	C200.353424,466.130768 167.197311,499.137543 134.330734,532.429993 
	C131.111954,535.690552 126.001747,538.138123 126.004303,543.943848 
z"/>
<path fill="black" opacity="1.000000" stroke="none" 
	d="
M412.420288,543.688599 
	C412.876373,542.432312 413.509949,540.876343 414.666443,540.120605 
	C418.451843,537.646851 423.122223,536.161621 426.228088,533.067383 
	C496.889709,462.671234 567.391479,392.114502 637.892578,321.557251 
	C639.145569,320.303314 639.831543,318.464691 641.128906,317.278107 
	C642.570740,315.959381 644.410767,315.075989 646.455139,314.003662 
	C647.659790,328.677887 644.483948,342.877563 640.364746,356.677673 
	C610.141418,457.931732 543.040527,519.240967 439.585236,540.599243 
	C430.825409,542.407715 421.760468,542.738281 412.420288,543.688599 
z"/>
<path fill="black" opacity="1.000000" stroke="none" 
	d="
M146.062363,354.002930 
	C146.010468,336.977875 145.958572,319.952789 146.315216,302.411560 
	C148.112793,300.498962 149.475632,299.075256 150.895401,297.710724 
	C157.054993,291.790985 163.343140,286.000092 169.371780,279.950287 
	C176.224274,273.073792 182.791718,265.914093 189.590912,258.983337 
	C196.604721,251.833786 203.738007,244.801208 210.839172,237.737717 
	C214.698959,233.898392 218.577698,230.077469 222.490036,226.291809 
	C226.151382,222.748978 229.968719,219.362366 233.539139,215.731705 
	C240.230927,208.927032 246.686157,201.887680 253.441757,195.148392 
	C259.842163,188.763428 266.641052,182.776749 273.013702,176.365433 
	C282.405060,166.917084 291.450989,157.124588 300.872253,147.707001 
	C310.057709,138.525177 319.654663,129.755081 328.841309,120.574417 
	C338.027924,111.393753 346.902344,101.901390 355.971283,92.601891 
	C359.421539,89.063957 363.012604,85.662102 366.575195,82.235298 
	C370.488251,78.471344 374.487213,74.795876 378.367035,70.998375 
	C382.940308,66.522148 387.574463,62.093304 391.908752,57.391819 
	C396.443298,52.473099 400.653137,47.255024 405.004883,42.167797 
	C420.343353,41.301445 435.341156,43.847145 450.650879,47.237915 
	C449.831940,49.519547 448.919525,51.501976 447.473755,52.953003 
	C420.116608,80.409782 392.676544,107.784012 365.342834,135.264038 
	C363.832764,136.782166 363.096466,139.069962 361.682190,141.204086 
	C333.800293,148.284622 309.576324,161.270096 289.235260,181.188782 
	C267.765503,202.212692 253.208344,227.242188 246.039093,256.513000 
	C245.658020,258.068878 244.192780,259.359283 242.886841,260.867645 
	C240.160675,263.008240 237.637421,264.911621 235.420837,267.122467 
	C209.232162,293.243500 183.131058,319.452515 156.880890,345.511475 
	C153.649429,348.719391 149.686401,351.190430 146.062363,354.002930 
z"/>
<path fill="black" opacity="1.000000" stroke="none" 
	d="
M889.361816,336.824341 
	C883.179504,336.634277 883.498474,340.862579 882.965881,344.686096 
	C880.678528,361.105652 879.623169,377.845245 875.627991,393.846313 
	C868.175110,423.695618 854.904297,450.868958 832.485352,472.771271 
	C828.378540,476.783508 823.899719,480.067322 817.713928,480.084167 
	C810.498901,480.103790 806.008179,476.104736 802.642700,470.328247 
	C799.503052,464.939362 799.509399,459.597076 803.211243,454.447906 
	C808.160339,447.563843 812.944458,440.547974 818.164551,433.874237 
	C836.021240,411.044983 845.302673,384.734253 850.021362,356.524689 
	C850.733887,352.264954 851.462341,348.000153 851.937622,343.710419 
	C852.560303,338.091248 851.366272,336.760590 845.801392,336.709503 
	C837.972473,336.637665 830.140564,336.804504 822.313171,336.675140 
	C809.063416,336.456207 802.636719,327.880219 805.988953,315.082245 
	C807.719421,308.476135 812.761230,304.193054 819.609192,304.029083 
	C827.927673,303.829834 836.254761,303.876587 844.576538,303.966888 
	C852.241882,304.050018 854.003784,302.358032 854.116394,294.778442 
	C854.294373,282.797607 854.164917,270.788727 854.988159,258.848419 
	C855.631470,249.517685 861.152527,245.683090 871.148682,246.128204 
	C880.387329,246.539581 885.476501,251.221725 885.772339,260.326538 
	C886.085999,269.979492 885.896118,279.649078 885.907776,289.311401 
	C885.910156,291.309998 885.811829,293.308502 885.793884,295.307343 
	C885.730286,302.411255 887.326477,303.989899 894.624084,303.991608 
	C914.111572,303.996155 933.600647,303.843964 953.085938,304.047760 
	C962.037292,304.141388 968.797302,311.267761 968.973389,319.990692 
	C969.179626,330.207062 963.033936,336.637634 952.788025,336.683075 
	C931.799255,336.776154 910.810059,336.768158 889.361816,336.824341 
z"/>
<path fill="black" opacity="1.000000" stroke="none" 
	d="
M126.466690,544.023926 
	C126.001747,538.138123 131.111954,535.690552 134.330734,532.429993 
	C167.197311,499.137543 200.353424,466.130768 233.458496,433.074097 
	C235.909012,430.627136 238.590958,428.411957 241.563721,426.513306 
	C241.962143,433.851654 241.962143,440.765717 241.962143,448.123169 
	C265.472992,448.123169 288.239868,448.123169 311.006714,448.123169 
	C309.488495,450.431488 308.313385,453.082123 306.402008,454.998260 
	C255.626877,505.899292 204.774643,556.723450 153.941147,607.566284 
	C151.514771,609.993103 149.139709,612.471191 146.398010,614.964111 
	C145.989044,593.959106 145.922180,572.915466 145.857605,551.871826 
	C145.850525,549.566040 145.856628,547.260315 145.856628,544.104004 
	C139.369720,544.104004 133.149399,544.104004 126.466690,544.023926 
z"/>
<path fill="black" opacity="1.000000" stroke="none" 
	d="
M801.133118,634.740234 
	C809.543396,644.465515 820.927917,647.498779 832.364136,643.310547 
	C842.866638,639.464294 849.039307,630.219299 849.118652,617.573853 
	C849.245056,597.418518 849.111938,577.261719 849.185547,557.105896 
	C849.225586,546.153259 855.732910,538.998840 865.435547,538.966064 
	C874.608093,538.935059 881.629883,545.250244 881.660278,554.903992 
	C881.733093,578.042053 882.068420,601.228882 880.760376,624.308899 
	C879.202637,651.794983 853.923218,674.291870 826.435791,675.086365 
	C802.892700,675.766907 784.272095,667.531006 771.719849,647.150330 
	C765.519653,637.083313 763.544434,625.826355 763.445129,614.238831 
	C763.280884,595.083618 763.389648,575.925903 763.408691,556.769287 
	C763.415894,549.546753 766.122070,543.702576 772.804443,540.444702 
	C778.296204,537.767273 783.807861,538.313477 788.833252,541.882690 
	C794.052979,545.589905 795.766602,550.995850 795.771423,557.108643 
	C795.786804,576.431885 795.839111,595.755371 795.743469,615.078125 
	C795.708984,622.052917 796.826538,628.618469 801.133118,634.740234 
z"/>
<path fill="black" opacity="1.000000" stroke="none" 
	d="
M808.522095,251.478333 
	C813.409790,255.946106 813.995483,261.005676 812.164673,266.736084 
	C807.580383,281.083923 802.947144,295.420044 798.689392,309.865753 
	C797.488281,313.940582 797.062988,318.376221 797.049805,322.648712 
	C796.904846,369.961121 796.918518,417.273956 796.870422,464.586700 
	C796.861328,473.568909 794.064392,479.192322 787.455200,480.957214 
	C773.675293,484.636932 764.684631,480.944031 764.779663,466.121185 
	C764.960266,437.969299 764.756531,409.814758 764.661011,381.661499 
	C764.648621,378.009949 764.331970,374.359436 764.120483,369.965485 
	C759.289001,369.965485 754.682068,370.105469 750.086670,369.936035 
	C740.836426,369.594940 733.118286,363.916199 732.807251,355.925903 
	C732.633118,351.453156 734.327637,346.425354 736.571289,342.428528 
	C744.199585,328.839111 753.081421,315.927490 760.268127,302.123779 
	C766.673706,289.820618 771.466553,276.677826 776.968750,263.904510 
	C777.623657,262.384186 778.243774,260.848633 778.912903,259.334686 
	C785.380127,244.701706 794.988586,242.049850 808.522095,251.478333 
z"/>
<path fill="black" opacity="1.000000" stroke="none" 
	d="
M1158.682983,443.126892 
	C1163.875977,443.964569 1168.600464,444.921570 1173.368896,445.534454 
	C1179.033325,446.262390 1181.409424,444.450592 1182.258789,438.810974 
	C1182.702271,435.865784 1182.840698,432.850555 1182.843750,429.866669 
	C1182.900269,375.246826 1182.909058,320.626923 1182.957153,266.007080 
	C1182.959717,263.187469 1182.827271,260.278717 1183.439697,257.565430 
	C1185.295898,249.340927 1192.052368,245.128067 1201.240601,246.103714 
	C1209.804199,247.013062 1215.563965,253.146332 1215.842773,262.229065 
	C1216.103149,270.714203 1215.938599,279.212830 1215.937866,287.705505 
	C1215.933594,338.162567 1215.953003,388.619690 1215.867676,439.076599 
	C1215.858887,444.218109 1215.490356,449.396790 1214.800415,454.492035 
	C1212.917969,468.394928 1205.716187,475.624725 1191.824829,478.107880 
	C1177.784912,480.617615 1164.078857,480.043274 1150.862427,474.082947 
	C1144.702759,471.305084 1141.329102,466.374847 1140.177002,460.007568 
	C1138.423462,450.316193 1144.785278,443.074188 1154.737915,443.027039 
	C1155.903076,443.021515 1157.068604,443.070282 1158.682983,443.126892 
z"/>
<path fill="black" opacity="1.000000" stroke="none" 
	d="
M992.221008,544.720154 
	C1003.042664,551.479492 1011.495850,559.644775 1013.171204,572.682312 
	C1014.099548,579.906921 1010.028809,586.125000 1003.215942,588.768433 
	C996.479614,591.382080 990.049194,589.585022 985.601746,583.481567 
	C981.782776,578.240662 978.417419,572.710205 972.132202,569.852661 
	C957.740479,563.309387 941.616638,570.426758 937.273071,586.092102 
	C933.669006,599.090454 933.806030,612.451538 936.930542,625.598694 
	C939.281189,635.489624 945.450439,642.153992 955.685120,643.920898 
	C966.741821,645.829712 975.901428,642.601990 982.694336,633.048950 
	C985.381226,629.270386 988.742981,625.327087 992.731750,623.273254 
	C998.399109,620.355103 1004.079224,622.724731 1008.707275,626.948303 
	C1013.930786,631.715393 1014.324951,637.761963 1012.414490,643.957581 
	C1009.558899,653.217896 1003.668823,660.456177 995.467529,665.427551 
	C975.528137,677.514587 954.434875,679.119812 933.702026,668.626831 
	C913.431030,658.367615 904.209717,640.296143 902.991882,617.895935 
	C902.240051,604.068237 901.885742,590.258057 906.031250,576.832275 
	C914.566467,549.189697 942.352295,532.258301 970.733887,537.769409 
	C977.958435,539.172302 984.863647,542.219482 992.221008,544.720154 
z"/>
<path fill="black" opacity="1.000000" stroke="none" 
	d="
M404.584137,42.095520 
	C400.653137,47.255024 396.443298,52.473099 391.908752,57.391819 
	C387.574463,62.093304 382.940308,66.522148 378.367035,70.998375 
	C374.487213,74.795876 370.488251,78.471344 366.575195,82.235298 
	C363.012604,85.662102 359.421539,89.063957 355.971283,92.601891 
	C346.902344,101.901390 338.027924,111.393753 328.841309,120.574417 
	C319.654663,129.755081 310.057709,138.525177 300.872253,147.707001 
	C291.450989,157.124588 282.405060,166.917084 273.013702,176.365433 
	C266.641052,182.776749 259.842163,188.763428 253.441757,195.148392 
	C246.686157,201.887680 240.230927,208.927032 233.539139,215.731705 
	C229.968719,219.362366 226.151382,222.748978 222.490036,226.291809 
	C218.577698,230.077469 214.698959,233.898392 210.839172,237.737717 
	C203.738007,244.801208 196.604721,251.833786 189.590912,258.983337 
	C182.791718,265.914093 176.224274,273.073792 169.371780,279.950287 
	C163.343140,286.000092 157.054993,291.790985 150.895401,297.710724 
	C149.475632,299.075256 148.112793,300.498962 146.391647,301.948242 
	C146.432846,289.963470 146.806152,277.925934 147.663071,265.448364 
	C149.592087,264.344452 151.292297,263.969910 152.435806,262.963074 
	C156.060745,259.771393 159.529266,256.395630 162.963928,252.995728 
	C169.035217,246.985886 175.053879,240.922516 181.063416,234.850693 
	C188.018509,227.823563 194.919662,220.742996 201.881897,213.722977 
	C208.469482,207.080704 215.084259,200.465057 221.726685,193.877625 
	C228.746811,186.915619 235.828705,180.015915 242.855560,173.060654 
	C248.926956,167.051102 254.961441,161.004227 261.007812,154.969437 
	C268.349121,147.642181 275.693909,140.318420 283.021881,132.977844 
	C289.057281,126.932060 295.081787,120.875267 301.090332,114.802803 
	C308.044983,107.774178 314.959442,100.705757 321.923706,93.686722 
	C328.512695,87.045860 335.119049,80.421791 341.762848,73.835793 
	C348.783905,66.875793 356.019867,60.123341 362.831787,52.966000 
	C365.658325,49.996151 367.628296,46.211048 369.987793,42.796684 
	C381.379669,42.538864 392.771515,42.281052 404.584137,42.095520 
z"/>
<path fill="black" opacity="1.000000" stroke="none" 
	d="
M369.541870,42.763340 
	C367.628296,46.211048 365.658325,49.996151 362.831787,52.966000 
	C356.019867,60.123341 348.783905,66.875793 341.762848,73.835793 
	C335.119049,80.421791 328.512695,87.045860 321.923706,93.686722 
	C314.959442,100.705757 308.044983,107.774178 301.090332,114.802803 
	C295.081787,120.875267 289.057281,126.932060 283.021881,132.977844 
	C275.693909,140.318420 268.349121,147.642181 261.007812,154.969437 
	C254.961441,161.004227 248.926956,167.051102 242.855560,173.060654 
	C235.828705,180.015915 228.746811,186.915619 221.726685,193.877625 
	C215.084259,200.465057 208.469482,207.080704 201.881897,213.722977 
	C194.919662,220.742996 188.018509,227.823563 181.063416,234.850693 
	C175.053879,240.922516 169.035217,246.985886 162.963928,252.995728 
	C159.529266,256.395630 156.060745,259.771393 152.435806,262.963074 
	C151.292297,263.969910 149.592087,264.344452 147.792694,265.014343 
	C150.798157,248.864731 154.157593,232.709183 158.109589,216.333511 
	C159.765823,216.739609 160.829483,217.365814 160.719009,217.300781 
	C163.967438,214.307495 166.660583,211.825867 170.659698,208.140854 
	C170.321884,204.865189 173.279907,202.288864 179.059937,202.601517 
	C178.247009,196.409073 181.663635,194.525330 187.019165,194.538986 
	C186.273361,188.539291 189.556396,186.521423 194.810547,186.568665 
	C194.658188,181.021942 197.105530,178.168701 202.746155,178.657745 
	C202.709778,173.171494 204.944717,170.105911 210.704666,170.706589 
	C210.731354,165.291031 212.821838,162.081055 218.903976,162.773056 
	C218.449631,157.107407 220.975296,154.332443 226.641846,154.746109 
	C226.810242,149.565857 228.575058,146.030319 234.624420,146.809830 
	C234.759171,141.371353 236.784332,137.858780 242.895111,138.835449 
	C242.593536,132.839142 245.288361,130.233292 250.824585,130.620819 
	C250.647385,124.990944 253.137665,122.180588 258.759613,122.649963 
	C258.700043,117.141418 260.977936,114.118752 266.710388,114.694977 
	C266.733978,109.273300 268.836884,106.075775 274.679810,106.741890 
	C274.753815,101.391090 276.746399,98.083252 282.647888,98.767326 
	C282.797791,93.533012 284.617279,90.052139 290.629608,90.799965 
	C290.764343,85.356110 292.788055,81.842064 298.908813,82.850456 
	C298.582703,76.807899 301.319427,74.243919 307.015778,74.627571 
	C306.286377,68.609612 309.485657,66.508026 313.365997,66.571304 
	C315.304352,63.582424 316.660553,59.543167 318.196777,59.473515 
	C323.648651,59.226322 323.871643,55.397877 324.957275,51.882877 
	C339.670166,48.831913 354.383026,45.780952 369.541870,42.763340 
z"/>
<path fill="black" opacity="1.000000" stroke="none" 
	d="
M145.985657,354.466187 
	C149.686401,351.190430 153.649429,348.719391 156.880890,345.511475 
	C183.131058,319.452515 209.232162,293.243500 235.420837,267.122467 
	C237.637421,264.911621 240.160675,263.008240 242.867905,260.891663 
	C243.194336,260.821289 243.181015,260.764191 243.129211,261.162048 
	C243.529587,262.424164 243.981781,263.288361 244.405197,264.586334 
	C243.584137,277.078156 242.499588,289.126129 242.081177,301.197174 
	C241.656250,313.455780 241.888489,325.737152 241.832916,338.008575 
	C240.293167,338.441986 238.289032,338.402740 237.288910,339.385376 
	C230.716446,345.843048 224.377502,352.537750 217.927353,359.120789 
	C214.361755,362.759918 210.750107,366.354675 207.119659,369.929230 
	C202.893936,374.089996 198.607498,378.189056 194.379730,382.347778 
	C190.289963,386.370758 186.205841,390.400665 182.182541,394.489838 
	C175.372223,401.411652 168.724167,408.497131 161.791840,415.293427 
	C156.961517,420.029022 151.770065,424.396332 146.399734,428.965698 
	C146.009354,404.311951 145.959152,379.620667 145.985657,354.466187 
z"/>
<path fill="black" opacity="1.000000" stroke="none" 
	d="
M1508.220947,647.045166 
	C1515.082764,645.614258 1521.690308,644.735901 1527.862793,642.599915 
	C1536.766602,639.518555 1543.440918,641.064941 1547.152954,648.205017 
	C1550.774658,655.171265 1548.348389,662.276978 1540.427979,667.171509 
	C1529.303345,674.046204 1516.902710,674.739990 1504.334961,674.084229 
	C1482.874512,672.964355 1466.672607,659.567505 1462.671509,638.649597 
	C1460.224731,625.857605 1460.273438,612.736938 1463.598511,600.023254 
	C1469.824097,576.218445 1491.969238,566.098877 1513.639771,568.477661 
	C1540.288696,571.402832 1554.777954,591.201782 1552.823120,619.555481 
	C1552.267700,627.612488 1547.437622,632.081726 1539.062622,632.261597 
	C1524.914551,632.565674 1510.760010,632.572144 1496.608276,632.700134 
	C1495.144653,632.713379 1493.680664,632.701965 1492.251221,632.701965 
	C1491.633545,641.210693 1496.977173,645.990540 1508.220947,647.045166 
M1524.029785,604.741638 
	C1520.545288,595.698486 1513.766235,592.104004 1503.839844,594.036133 
	C1496.189331,595.525330 1491.713257,602.213501 1492.079834,611.841553 
	C1502.640259,611.841553 1513.210815,611.841553 1524.530884,611.841553 
	C1524.383789,609.639465 1524.246582,607.586792 1524.029785,604.741638 
z"/>
<path fill="black" opacity="1.000000" stroke="none" 
	d="
M1339.996582,612.015930 
	C1339.996582,626.163879 1339.916870,639.815308 1340.036377,653.465027 
	C1340.083496,658.846619 1337.947632,662.740051 1333.267212,665.274963 
	C1314.867676,675.240295 1295.384644,677.487427 1275.459595,671.682251 
	C1257.136963,666.343811 1248.300659,647.481567 1255.013550,629.949219 
	C1259.740601,617.603088 1269.935791,612.377808 1282.129761,611.199646 
	C1291.253418,610.318115 1300.530762,611.025574 1309.933960,611.025574 
	C1312.422119,596.822449 1303.238770,594.855530 1290.509033,596.325500 
	C1285.258545,596.931763 1280.116943,598.598389 1274.863525,599.037537 
	C1266.452881,599.740723 1260.524292,596.014709 1259.136597,589.906738 
	C1257.479248,582.612061 1260.974609,576.311707 1269.066406,573.109680 
	C1284.749756,566.903564 1300.851929,566.288635 1316.879761,571.325867 
	C1331.017578,575.768982 1339.374023,587.968872 1339.939575,603.528748 
	C1340.036255,606.189209 1339.981323,608.855286 1339.996582,612.015930 
M1310.093750,641.322754 
	C1310.093750,638.379395 1310.093750,635.435974 1310.093750,631.363831 
	C1303.379028,631.191711 1297.141602,630.524963 1290.999390,631.025269 
	C1285.499512,631.473267 1282.603882,635.362549 1282.600464,640.345032 
	C1282.596924,645.256958 1285.708740,649.462463 1290.960938,649.766235 
	C1295.967651,650.055725 1301.086792,649.131775 1306.097656,648.359619 
	C1309.328247,647.861816 1310.782349,645.600586 1310.093750,641.322754 
z"/>
<path fill="black" opacity="1.000000" stroke="none" 
	d="
M1158.961914,538.935913 
	C1162.936279,539.100464 1166.543213,538.740417 1169.873657,539.536621 
	C1177.348755,541.323486 1182.378906,548.773926 1181.571655,555.992249 
	C1180.650269,564.231506 1173.956299,570.489624 1165.425903,570.862915 
	C1161.101196,571.052185 1156.762085,570.912476 1152.429443,570.916321 
	C1148.304321,570.920044 1144.179321,570.917114 1139.702637,570.917114 
	C1139.702637,581.001343 1139.702759,590.624756 1139.702759,600.248169 
	C1139.702759,618.745361 1139.790161,637.243042 1139.671021,655.739502 
	C1139.593140,667.838928 1130.873291,675.366821 1120.043457,672.978271 
	C1112.526489,671.320312 1107.152344,664.203247 1107.137939,655.580811 
	C1107.093140,628.751648 1107.120972,601.922302 1107.120850,575.093079 
	C1107.120850,573.933167 1107.120972,572.773193 1107.120972,570.912231 
	C1098.761230,570.912231 1090.506348,570.987366 1082.253296,570.889893 
	C1074.837646,570.802307 1068.562134,566.543762 1066.236694,560.258728 
	C1062.397827,549.883362 1069.699219,539.110779 1080.981567,539.022339 
	C1103.476685,538.846008 1125.973999,538.948608 1148.470337,538.936523 
	C1151.803223,538.934753 1155.136108,538.936096 1158.961914,538.935913 
z"/>
<path fill="black" opacity="1.000000" stroke="none" 
	d="
M914.415344,351.884186 
	C914.972656,362.701447 915.569885,373.166473 915.649292,383.635406 
	C915.769348,399.457916 915.556641,415.283386 915.431519,431.107178 
	C915.340576,442.616699 923.848389,448.398163 934.422180,443.312744 
	C936.989746,442.077881 939.338623,438.209808 939.819458,435.234436 
	C941.115417,427.214325 941.722473,419.031830 941.921509,410.897095 
	C942.253967,397.306366 951.660522,395.063049 961.352173,398.030609 
	C966.327393,399.554016 969.293701,403.264282 968.994202,408.465820 
	C968.076599,424.400146 967.415710,440.389801 965.464661,456.211121 
	C963.944885,468.535004 955.514954,474.989899 942.947998,474.929626 
	C929.809204,474.866638 916.664185,474.456360 903.538208,473.847809 
	C893.018799,473.360107 887.079224,467.710022 885.933411,457.119751 
	C885.255005,450.849854 885.214783,444.493011 885.185547,438.173889 
	C885.061462,411.359772 885.029419,384.545166 885.007324,357.730682 
	C885.000671,349.627563 888.311829,344.666046 894.498779,343.209442 
	C903.389343,341.116241 910.771606,344.231781 914.415344,351.884186 
z"/>
<path fill="black" opacity="1.000000" stroke="none" 
	d="
M1359.820801,600.225037 
	C1358.484375,596.421631 1356.860718,593.070679 1356.166138,589.537109 
	C1354.359619,580.345947 1359.571533,572.116455 1368.143921,569.972961 
	C1377.190674,567.710815 1386.048950,572.539001 1388.810669,581.802185 
	C1392.735962,594.967468 1396.358765,608.226624 1399.880493,621.506775 
	C1401.534424,627.743042 1402.625000,634.127686 1404.039673,640.429626 
	C1404.236206,641.304688 1404.829346,642.090759 1405.832275,644.116638 
	C1407.023071,638.281067 1407.712402,633.575134 1408.961182,629.022705 
	C1413.295166,613.224121 1417.599487,597.410889 1422.360229,581.738403 
	C1425.300903,572.057434 1434.985962,567.224548 1444.059814,570.164001 
	C1452.838989,573.008118 1457.508179,582.944885 1453.998901,592.606262 
	C1446.484253,613.294678 1438.808350,633.928711 1430.841797,654.446594 
	C1427.423340,663.250671 1421.722168,670.378357 1412.006104,672.929565 
	C1398.193848,676.556396 1385.982422,669.758240 1380.053101,655.094360 
	C1377.014648,647.579590 1374.375854,639.902893 1371.577271,632.291687 
	C1367.693481,621.729614 1363.829346,611.160461 1359.820801,600.225037 
z"/>
<path fill="black" opacity="1.000000" stroke="none" 
	d="
M362.000000,140.999496 
	C363.096466,139.069962 363.832764,136.782166 365.342834,135.264038 
	C392.676544,107.784012 420.116608,80.409782 447.473755,52.953003 
	C448.919525,51.501976 449.831940,49.519547 450.998169,47.423828 
	C470.080200,50.545567 488.065277,57.265083 505.621033,66.030197 
	C503.642944,67.112991 501.045288,66.999763 499.651764,68.239746 
	C494.365997,72.943153 489.514069,78.130234 484.417358,83.050941 
	C477.820923,89.419540 471.102203,95.661720 464.521454,102.046303 
	C460.990082,105.472435 457.655182,109.100327 454.199402,112.605415 
	C450.066589,116.797218 445.598572,120.702827 441.829376,125.196762 
	C437.855286,129.935028 430.499847,132.733932 431.595703,140.963654 
	C416.141174,138.026855 401.008789,136.132965 385.654633,137.869400 
	C377.752838,138.763046 369.883820,139.946823 362.000000,140.999496 
z"/>
<path fill="black" opacity="1.000000" stroke="none" 
	d="
M606.874146,154.007263 
	C614.872986,169.098495 622.871826,184.189728 630.535095,199.683685 
	C628.270020,202.468674 626.270630,204.798660 624.437927,207.253128 
	C623.373779,208.678284 622.844482,210.569077 621.620850,211.798996 
	C600.379944,233.149734 579.099304,254.461441 557.699158,275.652130 
	C556.357544,276.980591 553.960632,277.243317 551.920959,277.615417 
	C551.337402,274.107147 550.893250,270.984436 550.436768,267.863525 
	C548.085815,251.789215 542.532104,236.734009 536.164307,221.902496 
	C539.138916,219.522034 541.993591,217.469559 544.423096,214.998901 
	C553.642517,205.623306 562.655029,196.044220 571.876160,186.670364 
	C581.900574,176.479904 592.032654,166.394058 602.229736,156.376541 
	C603.412415,155.214737 605.308716,154.779419 606.874146,154.007263 
z"/>
<path fill="black" opacity="1.000000" stroke="none" 
	d="
M324.567688,51.889145 
	C323.871643,55.397877 323.648651,59.226322 318.196777,59.473515 
	C316.660553,59.543167 315.304352,63.582424 313.365997,66.571304 
	C309.485657,66.508026 306.286377,68.609612 307.015778,74.627571 
	C301.319427,74.243919 298.582703,76.807899 298.908813,82.850456 
	C292.788055,81.842064 290.764343,85.356110 290.629608,90.799965 
	C284.617279,90.052139 282.797791,93.533012 282.647888,98.767326 
	C276.746399,98.083252 274.753815,101.391090 274.679810,106.741890 
	C268.836884,106.075775 266.733978,109.273300 266.710388,114.694977 
	C260.977936,114.118752 258.700043,117.141418 258.759613,122.649963 
	C253.137665,122.180588 250.647385,124.990944 250.824585,130.620819 
	C245.288361,130.233292 242.593536,132.839142 242.895111,138.835449 
	C236.784332,137.858780 234.759171,141.371353 234.624420,146.809830 
	C228.575058,146.030319 226.810242,149.565857 226.641846,154.746109 
	C220.975296,154.332443 218.449631,157.107407 218.903976,162.773056 
	C212.821838,162.081055 210.731354,165.291031 210.704666,170.706589 
	C204.944717,170.105911 202.709778,173.171494 202.746155,178.657745 
	C197.105530,178.168701 194.658188,181.021942 194.810547,186.568665 
	C189.556396,186.521423 186.273361,188.539291 187.019165,194.538986 
	C181.663635,194.525330 178.247009,196.409073 179.059937,202.601517 
	C173.279907,202.288864 170.321884,204.865189 170.659698,208.140854 
	C166.660583,211.825867 163.967438,214.307495 160.719009,217.300781 
	C160.829483,217.365814 159.765823,216.739609 158.351257,216.056763 
	C163.057983,197.758316 171.038055,180.762085 180.776093,164.645233 
	C214.365021,109.054214 262.015411,71.212120 324.567688,51.889145 
z"/>
<path fill="black" opacity="1.000000" stroke="none" 
	d="
M606.806274,153.676224 
	C605.308716,154.779419 603.412415,155.214737 602.229736,156.376541 
	C592.032654,166.394058 581.900574,176.479904 571.876160,186.670364 
	C562.655029,196.044220 553.642517,205.623306 544.423096,214.998901 
	C541.993591,217.469559 539.138916,219.522034 535.889282,221.703735 
	C527.428223,206.061722 516.739014,192.565689 504.948700,179.999847 
	C516.473694,168.785461 527.676575,157.712173 538.852356,146.611664 
	C543.966064,141.532410 549.056946,136.429337 554.100586,131.280640 
	C557.486145,127.824478 560.798767,124.295387 564.091614,120.750267 
	C566.763855,117.873299 569.358154,114.923904 571.987000,112.006645 
	C585.445435,124.210251 596.570190,138.375702 606.806274,153.676224 
z"/>
<path fill="black" opacity="1.000000" stroke="none" 
	d="
M126.544998,448.093140 
	C124.879173,451.057617 123.074486,454.275085 120.560860,456.781616 
	C111.275055,466.041077 101.626877,474.937958 92.373154,484.228363 
	C87.199669,489.422333 82.700348,495.284027 77.584709,500.540649 
	C73.888069,504.339172 69.539238,507.495422 65.733078,511.197052 
	C61.802269,515.020020 58.178436,519.158386 54.414631,523.153442 
	C53.422634,524.206360 52.566635,525.487244 51.379646,526.239929 
	C45.291054,530.100586 44.421635,532.337585 46.935558,538.807373 
	C29.033682,530.969666 17.778595,510.625061 20.186335,490.874420 
	C22.719143,470.097809 38.449001,452.727966 58.226662,449.069000 
	C61.802734,448.407440 65.488403,448.071106 69.125809,448.053040 
	C88.110374,447.958679 107.095680,448.015533 126.544998,448.093140 
z"/>
<path fill="black" opacity="1.000000" stroke="none" 
	d="
M552.054688,278.001831 
	C553.960632,277.243317 556.357544,276.980591 557.699158,275.652130 
	C579.099304,254.461441 600.379944,233.149734 621.620850,211.798996 
	C622.844482,210.569077 623.373779,208.678284 624.437927,207.253128 
	C626.270630,204.798660 628.270020,202.468674 630.540527,200.046722 
	C635.298767,215.058533 639.715881,230.110077 644.103394,245.579437 
	C641.386169,247.827972 638.334595,249.292374 636.066284,251.545410 
	C610.020142,277.416199 584.108643,303.422546 558.117676,329.349030 
	C554.115356,333.341370 549.893188,337.113281 545.400452,340.607117 
	C545.320801,339.281097 545.612061,338.334686 545.906128,337.389099 
	C551.934387,318.005280 553.029541,298.110718 552.054688,278.001831 
z"/>
<path fill="black" opacity="1.000000" stroke="none" 
	d="
M432.004639,140.931412 
	C430.499847,132.733932 437.855286,129.935028 441.829376,125.196762 
	C445.598572,120.702827 450.066589,116.797218 454.199402,112.605415 
	C457.655182,109.100327 460.990082,105.472435 464.521454,102.046303 
	C471.102203,95.661720 477.820923,89.419540 484.417358,83.050941 
	C489.514069,78.130234 494.365997,72.943153 499.651764,68.239746 
	C501.045288,66.999763 503.642944,67.112991 505.847260,66.294739 
	C518.233032,73.110229 530.459229,80.235802 542.429932,87.745773 
	C539.390991,90.669067 536.482239,93.085251 533.848877,95.771332 
	C527.549133,102.197136 521.443970,108.813812 515.139771,115.235123 
	C507.575592,122.939880 499.907166,130.542831 492.241577,138.147263 
	C488.871674,141.490295 485.174255,144.530655 482.038757,148.074112 
	C479.385590,151.072495 477.328064,154.597931 474.662476,157.834747 
	C461.053986,150.052765 446.689819,145.088943 432.004639,140.931412 
z"/>
<path fill="black" opacity="1.000000" stroke="none" 
	d="
M1601.884155,566.002625 
	C1601.883911,596.288025 1601.880371,626.074036 1601.886108,655.859985 
	C1601.887329,662.187012 1600.122559,667.652405 1594.446899,671.209656 
	C1585.491089,676.822510 1573.670288,672.183411 1571.062866,661.947571 
	C1570.495850,659.721680 1570.260742,657.353516 1570.257324,655.050293 
	C1570.207031,621.769897 1570.205933,588.489502 1570.232666,555.209045 
	C1570.240356,545.632507 1574.734619,538.765808 1581.946045,537.064148 
	C1592.029419,534.684814 1601.276245,541.797974 1601.834961,552.525940 
	C1602.059692,556.840820 1601.879883,561.176819 1601.884155,566.002625 
z"/>
<path fill="black" opacity="1.000000" stroke="none" 
	d="
M1213.258301,568.161194 
	C1220.946167,569.041870 1228.326782,569.287231 1235.359375,570.979736 
	C1244.449219,573.167419 1248.026855,580.131226 1245.987427,589.337708 
	C1244.227051,597.284729 1237.982300,601.249084 1229.115845,600.048462 
	C1213.413208,597.922119 1212.453125,598.783325 1212.452393,614.981201 
	C1212.451782,628.977234 1212.449707,642.973206 1212.446533,656.969238 
	C1212.445190,663.464294 1210.035767,668.731873 1204.148315,671.817871 
	C1198.736694,674.654419 1193.222900,674.417969 1188.091064,670.973938 
	C1183.355469,667.795959 1180.947632,663.347168 1180.970703,657.508301 
	C1181.044434,638.847229 1180.975220,620.185669 1181.005005,601.524353 
	C1181.035156,582.604309 1190.281982,571.747803 1208.849121,568.751160 
	C1210.162109,568.539307 1211.480469,568.362366 1213.258301,568.161194 
z"/>
<path fill="black" opacity="1.000000" stroke="none" 
	d="
M475.006958,157.890121 
	C477.328064,154.597931 479.385590,151.072495 482.038757,148.074112 
	C485.174255,144.530655 488.871674,141.490295 492.241577,138.147263 
	C499.907166,130.542831 507.575592,122.939880 515.139771,115.235123 
	C521.443970,108.813812 527.549133,102.197136 533.848877,95.771332 
	C536.482239,93.085251 539.390991,90.669067 542.498047,88.070801 
	C552.458740,95.803452 562.095947,103.595467 571.860046,111.697060 
	C569.358154,114.923904 566.763855,117.873299 564.091614,120.750267 
	C560.798767,124.295387 557.486145,127.824478 554.100586,131.280640 
	C549.056946,136.429337 543.966064,141.532410 538.852356,146.611664 
	C527.676575,157.712173 516.473694,168.785461 504.656189,179.870605 
	C494.356018,172.544281 484.681488,165.217209 475.006958,157.890121 
z"/>
<path fill="black" opacity="1.000000" stroke="none" 
	d="
M944.744141,297.868835 
	C936.767944,301.715515 932.769104,301.331024 927.050049,295.345306 
	C920.510254,288.500519 914.197021,281.418304 908.119507,274.159485 
	C903.300232,268.403503 903.820496,262.435913 908.960449,256.711792 
	C914.519592,250.520630 920.793945,249.180481 927.045166,253.077942 
	C936.522949,258.987091 944.075989,266.802673 949.603516,276.531097 
	C955.070007,286.152222 954.001099,291.095215 944.744141,297.868835 
z"/>
<path fill="black" opacity="1.000000" stroke="none" 
	d="
M243.129211,261.162048 
	C243.715500,261.698761 244.250000,262.633362 244.609238,263.860260 
	C243.981781,263.288361 243.529587,262.424164 243.129211,261.162048 
z"/>
<path fill="black" opacity="1.000000" stroke="none" 
	d="
M354.380005,314.517517 
	C340.857330,284.525116 356.182373,252.614975 387.143494,245.579742 
	C413.390686,239.615662 439.557373,257.154816 444.698944,284.158356 
	C449.643829,310.128876 431.112610,336.251831 405.017242,340.096497 
	C383.800232,343.222443 365.240143,333.931396 354.380005,314.517517 
z"/>
</svg>